<svg width="300" height="300" viewBox="0 0 300 300" fill="none" xmlns="http://www.w3.org/2000/svg">
<rect width="300" height="300" rx="12" fill="black"/>
<path d="M30.75 180C28.126 180 25.83 179.481 23.862 178.442C21.894 177.403 20.3633 175.927 19.27 174.014C18.1767 172.101 17.63 169.859 17.63 167.29V126.864H2.46V120.14H25.01V167.29C25.01 169.149 25.5293 170.625 26.568 171.718C27.6067 172.757 29.0007 173.276 30.75 173.276H45.1V180H30.75ZM73.768 180.656C70.16 180.656 67.044 179.973 64.42 178.606C61.796 177.239 59.746 175.271 58.27 172.702C56.8486 170.078 56.138 166.989 56.138 163.436V151.464C56.138 147.856 56.8486 144.767 58.27 142.198C59.746 139.629 61.796 137.661 64.42 136.294C67.044 134.927 70.16 134.244 73.768 134.244C77.376 134.244 80.492 134.927 83.116 136.294C85.74 137.661 87.7626 139.629 89.184 142.198C90.66 144.767 91.398 147.829 91.398 151.382V163.436C91.398 166.989 90.66 170.078 89.184 172.702C87.7626 175.271 85.74 177.239 83.116 178.606C80.492 179.973 77.376 180.656 73.768 180.656ZM73.768 174.096C76.9933 174.096 79.508 173.194 81.312 171.39C83.116 169.586 84.018 166.935 84.018 163.436V151.464C84.018 147.965 83.116 145.314 81.312 143.51C79.508 141.706 76.9933 140.804 73.768 140.804C70.5973 140.804 68.0826 141.706 66.224 143.51C64.42 145.314 63.518 147.965 63.518 151.464V163.436C63.518 166.935 64.42 169.586 66.224 171.39C68.0826 173.194 70.5973 174.096 73.768 174.096ZM122.854 180.82C117.661 180.82 113.506 179.289 110.39 176.228C107.274 173.112 105.716 168.903 105.716 163.6V134.9H113.096V163.6C113.096 166.989 113.971 169.641 115.72 171.554C117.469 173.413 119.847 174.342 122.854 174.342C125.915 174.342 128.321 173.413 130.07 171.554C131.874 169.641 132.776 166.989 132.776 163.6V134.9H140.156V163.6C140.156 168.903 138.571 173.112 135.4 176.228C132.229 179.289 128.047 180.82 122.854 180.82ZM154.474 180V173.276H170.464V141.624H156.524V134.9H177.844V173.276H193.014V180H154.474ZM173.334 126.782C171.53 126.782 170.109 126.317 169.07 125.388C168.031 124.459 167.512 123.201 167.512 121.616C167.512 119.976 168.031 118.691 169.07 117.762C170.109 116.778 171.53 116.286 173.334 116.286C175.138 116.286 176.559 116.778 177.598 117.762C178.637 118.691 179.156 119.976 179.156 121.616C179.156 123.201 178.637 124.459 177.598 125.388C176.559 126.317 175.138 126.782 173.334 126.782ZM219.878 180.656C216.817 180.656 214.138 180.191 211.842 179.262C209.601 178.278 207.797 176.911 206.43 175.162C205.118 173.413 204.325 171.335 204.052 168.93H211.432C211.76 170.515 212.635 171.773 214.056 172.702C215.532 173.631 217.473 174.096 219.878 174.096H223.322C226.219 174.096 228.379 173.522 229.8 172.374C231.221 171.171 231.932 169.586 231.932 167.618C231.932 165.705 231.276 164.201 229.964 163.108C228.707 161.96 226.821 161.195 224.306 160.812L218.238 159.828C213.81 159.063 210.503 157.696 208.316 155.728C206.184 153.705 205.118 150.781 205.118 146.954C205.118 142.909 206.403 139.793 208.972 137.606C211.541 135.365 215.395 134.244 220.534 134.244H223.65C227.969 134.244 231.44 135.255 234.064 137.278C236.688 139.301 238.273 142.034 238.82 145.478H231.44C231.112 144.057 230.292 142.936 228.98 142.116C227.668 141.241 225.891 140.804 223.65 140.804H220.534C217.746 140.804 215.696 141.323 214.384 142.362C213.127 143.401 212.498 144.959 212.498 147.036C212.498 148.895 213.045 150.261 214.138 151.136C215.231 152.011 216.953 152.639 219.304 153.022L225.372 154.006C230.237 154.771 233.763 156.193 235.95 158.27C238.191 160.347 239.312 163.354 239.312 167.29C239.312 171.445 237.973 174.725 235.294 177.13C232.67 179.481 228.679 180.656 223.322 180.656H219.878ZM259.78 193.12L266.34 167.618H277L266.34 193.12H259.78ZM269.62 146.38C267.816 146.38 266.34 145.806 265.192 144.658C264.044 143.51 263.47 142.034 263.47 140.23C263.47 138.481 264.044 137.032 265.192 135.884C266.395 134.681 267.871 134.08 269.62 134.08H271.26C273.009 134.08 274.458 134.681 275.606 135.884C276.809 137.032 277.41 138.481 277.41 140.23C277.41 142.034 276.836 143.51 275.688 144.658C274.54 145.806 273.064 146.38 271.26 146.38H269.62Z" fill="white"/>
</svg>
